<?xml version="1.0" encoding="utf-8"?><!-- Uploaded to: SVG Repo, www.svgrepo.com, Generator: SVG Repo Mixer Tools -->
<svg fill="#000000" width="800px" height="800px" viewBox="0 0 24 24" id="gaming-mouse" data-name="Flat Line" xmlns="http://www.w3.org/2000/svg" class="icon flat-line"><path id="secondary" d="M18,10v5a6,6,0,0,1-6,6,6,6,0,0,1-6-6V10Z" style="fill: rgb(44, 169, 188); stroke-width: 2;"></path><path id="primary" d="M12,3v7M6,10H18M12,3A9.39,9.39,0,0,0,6.41,4.66,1,1,0,0,0,6,5.47V15a6,6,0,0,0,6,6h0a6,6,0,0,0,6-6V5.47a1,1,0,0,0-.41-.81A9.39,9.39,0,0,0,12,3Z" style="fill: none; stroke: rgb(0, 0, 0); stroke-linecap: round; stroke-linejoin: round; stroke-width: 2;"></path></svg>